<?xml version="1.0" encoding="iso-8859-1"?>
<!-- Generator: Adobe Illustrator 16.0.0, SVG Export Plug-In . SVG Version: 6.00 Build 0)  -->
<!DOCTYPE svg PUBLIC "-//W3C//DTD SVG 1.1//EN" "http://www.w3.org/Graphics/SVG/1.1/DTD/svg11.dtd">
<svg version="1.1" id="Capa_1" xmlns="http://www.w3.org/2000/svg" xmlns:xlink="http://www.w3.org/1999/xlink" x="0px" y="0px"
	 width="564.786px" height="564.786px" viewBox="0 0 564.786 564.786" style="enable-background:new 0 0 564.786 564.786;"
	 xml:space="preserve">
<g>
	<g>
		<path d="M406.545,37.523C279.556-13.272,68.11,32.321,12.112,170.328c-42.228,104.04,28.458,327.726,173.196,276.624
			c1.224-0.307,1.836-1.225,2.448-1.836c13.464,44.37,43.758,78.029,83.231,101.286c4.284,2.447,11.628,0.306,12.24-4.896
			c4.896-36.414,4.59-73.134,13.157-108.936c1.225-5.509-6.426-7.345-8.262-2.143c-11.628,30.294-14.382,63.036-19.277,94.86
			c-30.601-20.809-54.162-48.654-65.484-84.762c-2.754-8.263-13.77-6.732-15.912-0.307c-0.918-1.224-2.448-2.142-4.59-1.836
			c-81.702,16.83-130.968-49.878-155.142-118.728C3.238,250.5,12.417,181.649,61.072,125.958
			C145.833,28.649,317.194,9.983,428.578,65.981c86.292,43.452,133.722,143.514,112.914,237.15
			C516.094,416.963,403.18,438.383,303.423,429.204c-8.874-0.918-10.71,13.464-2.142,15.3
			c113.526,24.786,232.254-25.092,258.57-144.738C585.25,185.934,509.362,78.833,406.545,37.523z"/>
		<path d="M491.919,232.445c13.158-23.256,10.404-52.938-14.688-67.014c-7.038-3.978-18.36-6.426-24.174,0.918
			c-7.956,10.098,0.306,25.092,5.508,34.272c-18.054-2.142-37.332,0-55.692,0.612c-10.403-54.774-66.708-88.128-119.034-94.86
			c-65.178-7.956-120.869,38.556-140.453,97.92c-1.53,4.284-2.448,8.568-3.366,12.852c-0.612-0.306-0.918-0.306-1.53-0.306
			c-3.672,0-7.649,0-11.322,0.306c-4.896,0.612-8.567,2.754-12.852,3.978c-0.612,0.306-1.224,0.612-1.836,0.918
			c0-0.306,0.306-0.918,0.306-1.224c-3.365-18.666-18.666-40.086-40.392-34.578c-7.956,2.142-13.771,9.486-14.382,17.442
			c-0.918,11.016,4.896,20.808,11.628,29.07c-12.853,18.972-20.196,48.348,1.224,63.954c20.809,14.994,43.758-11.322,48.654-31.212
			c3.366,0,6.426-0.918,10.098-1.836c4.284-1.224,8.263-2.448,12.24-3.366c8.262,28.458,31.518,49.878,64.566,55.692
			c-7.345,15.3-16.219,41.31-2.755,53.55c13.771,12.24,26.929-2.754,35.496-16.83c0.307,0.612,0.612,1.53,0.918,2.142
			c3.061,7.038,10.404,13.771,11.935,21.727c1.224,6.731,10.404,5.508,12.24,0c1.836-4.896,1.836-11.322,2.447-17.137
			c6.732,7.038,13.771,12.853,21.114,19.891c3.06,3.06,7.649,2.142,9.792-1.225c14.382-20.502,14.688-42.228-0.918-62.729
			c-0.307-0.306-0.612-0.306-0.612-0.612c49.572-4.284,97.308-27.233,107.101-75.888c9.791,2.754,20.808,4.284,30.905,4.284
			c-14.076,30.294,0.612,75.582,39.168,70.074c14.076-2.143,25.398-12.853,30.294-26.011
			C510.28,268.554,502.018,248.051,491.919,232.445z M132.064,253.866c-5.508,0.918-11.628,0.918-16.83,3.06
			c-0.306,0-0.612,0.306-0.918,0.306l0,0l0,0c-0.612,0.306-1.224,0.612-1.53,1.224c-6.426,10.098-18.972,42.534-36.72,28.152
			c-16.218-13.158-4.59-38.862,5.202-51.714c1.53-2.142,0.612-4.896-0.918-6.426c-6.12-7.344-20.196-28.152-4.284-33.354
			c16.218-5.202,28.152,14.076,32.13,26.622c0.306,1.53,1.53,1.836,2.754,1.53c-3.672,5.202,7.345,14.382,10.71,6.426
			c1.836-4.59,13.464-3.978,17.442-4.284l0,0c-0.918,9.486-0.612,18.36,0.918,26.928
			C137.266,252.947,134.512,253.56,132.064,253.866z M292.102,298.236c-9.18,0.611-10.404,12.852-3.979,15.911
			c-1.224,1.225-2.142,3.061-1.224,5.202c2.142,7.345,5.813,14.076,8.262,21.42c3.06,8.874,0,16.83-4.284,24.48
			c-7.649-6.732-15.605-13.158-21.726-22.032c-2.754-3.978-8.262-4.284-11.016,0c-2.143,3.366-3.061,7.038-3.366,10.71
			c-3.366-5.508-6.732-11.321-7.344-18.666c-0.307-5.813-9.181-9.485-12.24-3.366c-2.448,4.896-18.972,39.475-24.786,24.175
			c-4.284-11.935,0-26.929,4.284-38.557c1.224,0,2.142,0.307,3.366,0.307c5.813,0.306,7.038-8.874,1.224-10.099
			c-52.632-10.098-75.888-47.124-61.506-98.838c14.382-52.02,63.647-87.822,116.892-87.516
			c51.714,0.612,100.368,33.966,112.608,85.068C402.262,266.105,341.673,295.175,292.102,298.236z M492.226,281.406
			c-2.448,10.098-10.71,16.83-20.502,18.972c-8.874,1.836-18.666-1.836-23.868-9.486c-10.099-14.382-3.979-31.211-2.448-46.818
			c0-0.918,0-1.53-0.306-2.142c0.306,0,0.918,0,1.224-0.306c3.366-0.612,3.366-5.814,0-6.426c-7.344-1.53-15.3-0.612-22.644-0.918
			c-6.427-0.306-12.853-1.224-19.278-2.448c0.612-4.896,0.918-10.098,0.918-15.606c0-3.06-0.306-5.814-0.918-8.568
			c19.278,0.612,40.086,3.06,59.058,0.306c2.754-0.306,3.061-4.284,1.225-5.814c1.529-1.224,2.447-3.06,1.224-5.202
			c-2.142-4.59-9.486-18.36-4.896-23.256c3.061-3.366,11.017,1.836,13.465,3.366c18.666,12.852,17.441,36.108,5.508,52.938
			c-1.225,1.53-0.918,4.284,0,5.814C488.553,248.969,496.509,265.188,492.226,281.406z"/>
		<path d="M254.77,185.321c0-3.06-0.306-6.12-0.612-8.874c-0.306-3.672-1.836-5.814-3.06-8.874c-1.53-3.366-6.12-3.06-8.262-0.306
			c-0.919-0.612-2.143-0.918-3.673-0.306c-25.092,11.322-53.243,34.578-46.817,65.484c3.978,18.666,25.704,32.13,42.84,20.196
			c9.486-6.426,14.382-17.442,17.136-28.152c1.836-7.956,2.754-15.912,3.061-24.174C255.076,195.113,255.076,190.217,254.77,185.321
			z M241,203.682c-0.306,7.956-1.529,15.912-4.283,23.562c-1.53,4.59-4.284,9.18-7.345,12.24c-0.306,0.306-0.918,0.612-1.224,1.224
			l0,0l0,0c-0.918,0.612-1.53,0.918-2.448,1.53c0,0-0.306,0.306-0.611,0.306c-0.307,0-0.612,0.306-0.918,0.306
			c-0.307,0-1.837,0.306-2.143,0.612c-0.612,0-1.224,0-2.142,0c-0.307,0-0.612,0-0.612,0s0,0-0.612,0
			c-0.918-0.306-1.836-0.306-2.447-0.612h-0.307c-0.306-0.306-0.918-0.306-1.224-0.612c-3.061-1.53-4.896-3.672-6.426-6.426
			c-0.612-0.918-0.918-1.836-1.53-2.754c-0.612-1.53,0,0.306-0.612-1.836c-0.306-0.918-0.611-2.142-0.918-3.06
			c-0.306-0.612-0.611-3.978-0.611-2.448c-0.612-5.508,0-8.874,1.529-14.076c5.202-15.912,20.502-27.846,34.578-36.72
			c0,0.918-0.306,2.142-0.306,3.366c0.306,3.06,0.306,5.814,0.611,8.874C241.306,192.359,241.306,198.173,241,203.682z"/>
		<path d="M284.146,158.7c-7.344-4.284-14.076,7.038-6.732,11.628c0.612,0.306,0.918,0.612,1.53,0.918
			c-18.972,40.086,1.53,83.538,45.594,96.39c3.672,1.224,6.732-1.224,8.262-4.59C349.936,218.063,322.396,180.425,284.146,158.7z
			 M285.982,175.835c26.622,18.666,45.288,43.452,36.107,76.806C288.736,240.096,275.884,208.578,285.982,175.835z"/>
	</g>
</g>
<g>
</g>
<g>
</g>
<g>
</g>
<g>
</g>
<g>
</g>
<g>
</g>
<g>
</g>
<g>
</g>
<g>
</g>
<g>
</g>
<g>
</g>
<g>
</g>
<g>
</g>
<g>
</g>
<g>
</g>
</svg>
